# xmcd
#
# Track frame offsets:
#	150
#	19283
#	53636
#	81964
#	104977
#	133047
#	151950
#	178418
#	202887
#	224186
#	258115
#	276795
#	291915
#
# Disc length: 4126 seconds
#
# Revision: 22
# Processed by: cddbd v1.5.2PL0 Copyright (c) Steve Scherf et al.
# Submitted via: Jack! The Knife 20 Magnifico
#
DISCID=cd101c0d
DTITLE=Yngwie Malmsteen - Alchemy
DYEAR=1999
DGENRE=Metal
TTITLE0=Blitzkrieg
TTITLE1=Leonardo
TTITLE2=Playing With Fire
TTITLE3=Stand (The)
TTITLE4=Wield My Sword
TTITLE5=Blue
TTITLE6=Legion Of The Damned
TTITLE7=Daemon Dance
TTITLE8=Hangar 18, Area 51
TTITLE9=Voodoo Nights
TTITLE10=Asylum: I. Asylum
TTITLE11=Asylum: II. Sky Euphoria
TTITLE12=Asylum: III. Quantum Leap
EXTD=Yngwie Malmsteen
EXTT0=Yngwie Malmsteen
EXTT1=Yngwie Malmsteen
EXTT2=Yngwie Malmsteen
EXTT3=Yngwie Malmsteen
EXTT4=Yngwie Malmsteen
EXTT5=Yngwie Malmsteen
EXTT6=Yngwie Malmsteen
EXTT7=Yngwie Malmsteen
EXTT8=Yngwie Malmsteen
EXTT9=Yngwie Malmsteen
EXTT10=Yngwie Malmsteen
EXTT11=Yngwie Malmsteen
EXTT12=Yngwie Malmsteen
PLAYORDER=
